# xmcd
#
# Track frame offsets:
#	150
#	17082
#	32042
#	52842
#	70012
#	82090
#	109595
#	134422
#	153922
#	172865
#	189750
#	205170
#	223010
#	239200
#
# Disc length: 3579 seconds
#
# Revision: 0
# Processed by: cddbd v1.4PL0 Copyright (c) Steve Scherf et al.
# Submitted via: dBpowerAMP V4.0
#
DISCID=b80df90e
DTITLE=Pinetop Perkins - Solitaire
DYEAR=1900
DGENRE=
TTITLE0=P.G. Shuffle
TTITLE1=Yonder's Wall
TTITLE2=Some Day Baby
TTITLE3=Chicken Shack
TTITLE4=Blues For Olivia
TTITLE5=Love My Woman
TTITLE6=Just a Little Bit
TTITLE7=Big Fat Mama
TTITLE8=Pine's Blues
TTITLE9=Kansas City
TTITLE10=Keep On Drinkin'
TTITLE11=High Heel Sneakers
TTITLE12=Take It Easy Baby
TTITLE13=The Grinder Man
EXTD=
EXTT0=
EXTT1=
EXTT2=
EXTT3=
EXTT4=
EXTT5=
EXTT6=
EXTT7=
EXTT8=
EXTT9=
EXTT10=
EXTT11=
EXTT12=
EXTT13=
PLAYORDER=
